<svg width="32" height="32" viewBox="0 0 32 32" fill="none" xmlns="http://www.w3.org/2000/svg">
<path d="M10.8947 14.6667C10.8947 11.88 13.2053 9.66667 16 9.66667C18.7947 9.66667 21.1053 11.88 21.1053 14.6667C21.1053 17.4533 18.7947 19.6667 15.9987 19.6667C13.2053 19.6667 10.8947 17.4533 10.8947 14.6667ZM16 11.6667C14.26 11.6667 12.8933 13.0347 12.8933 14.6667C12.8933 16.2987 14.2587 17.6667 15.9987 17.6667C17.7387 17.6667 19.104 16.2987 19.104 14.6667C19.104 13.0347 17.7387 11.6667 15.9973 11.6667M14.6667 5C14.4014 5 14.1471 5.10536 13.9595 5.29289C13.772 5.48043 13.6667 5.73478 13.6667 6C13.6667 6.26522 13.772 6.51957 13.9595 6.70711C14.1471 6.89464 14.4014 7 14.6667 7H17.3333C17.5985 7 17.8529 6.89464 18.0404 6.70711C18.228 6.51957 18.3333 6.26522 18.3333 6C18.3333 5.73478 18.228 5.48043 18.0404 5.29289C17.8529 5.10536 17.5985 5 17.3333 5H14.6667Z" fill="white"/>
<path d="M13.8227 1.66667H18.1773C19.6333 1.66667 20.788 1.66667 21.7173 1.74267C22.6693 1.82001 23.4733 1.98267 24.2093 2.356C25.4009 2.9638 26.3694 3.93323 26.976 5.12534C27.3507 5.85867 27.5133 6.664 27.5907 7.616C27.6667 8.54534 27.6667 9.7 27.6667 11.156V20.844C27.6667 22.3 27.6667 23.4547 27.5907 24.384C27.5133 25.336 27.3507 26.14 26.9773 26.876C26.3699 28.0673 25.401 29.0358 24.2093 29.6427C23.4733 30.0173 22.6693 30.18 21.7173 30.2573C20.788 30.3333 19.6333 30.3333 18.1773 30.3333H13.8227C12.3667 30.3333 11.212 30.3333 10.2827 30.2573C9.33068 30.18 8.52668 30.0173 7.79201 29.644C6.6002 29.0368 5.63123 28.0678 5.02401 26.876C4.64934 26.14 4.48668 25.336 4.40934 24.384C4.33334 23.4547 4.33334 22.3 4.33334 20.844V11.156C4.33334 9.7 4.33334 8.54534 4.40934 7.616C4.48668 6.664 4.64934 5.86 5.02268 5.12534C5.63024 3.93332 6.5997 2.96433 7.79201 2.35734C8.52534 1.98267 9.33068 1.82001 10.2827 1.74267C11.212 1.66667 12.3667 1.66667 13.8227 1.66667ZM10.4453 3.73601C9.61868 3.80267 9.10534 3.93201 8.69868 4.13867C7.88352 4.55409 7.22076 5.21685 6.80534 6.03201C6.59868 6.43867 6.47068 6.952 6.40268 7.77867C6.33468 8.61867 6.33334 9.69067 6.33334 11.2V20.8C6.33334 22.3107 6.33334 23.3827 6.40268 24.2213V24.2333C6.6679 23.509 7.09628 22.8553 7.65466 22.3231C8.21304 21.7908 8.88642 21.3942 9.62268 21.164L10.9347 20.744C11.1622 20.672 11.3907 20.6044 11.62 20.5413C12.4187 20.324 13.172 20.588 13.6947 20.9293C14.1853 21.2507 14.9987 21.648 16 21.648C17 21.648 17.8147 21.2507 18.3067 20.9293C18.828 20.588 19.5813 20.324 20.3787 20.5413C20.6089 20.6036 20.8378 20.6711 21.0653 20.744L22.3773 21.1653C23.1132 21.3956 23.7862 21.7921 24.3444 22.3241C24.9025 22.8561 25.3308 23.5093 25.596 24.2333L25.5973 24.2213C25.6653 23.3813 25.6667 22.3107 25.6667 20.8V11.2C25.6667 9.69067 25.6667 8.61734 25.5973 7.77867C25.5307 6.952 25.4013 6.43867 25.1947 6.03201C24.7793 5.21685 24.1165 4.55409 23.3013 4.13867C22.8947 3.93201 22.3813 3.80401 21.5547 3.73601C20.7147 3.66801 19.6427 3.66667 18.1333 3.66667H13.8667C12.3573 3.66667 11.284 3.66667 10.4453 3.73601ZM8.69868 27.8613C9.10534 28.068 9.61868 28.196 10.4453 28.264C11.2853 28.332 12.3573 28.3333 13.8667 28.3333H18.1333C19.644 28.3333 20.716 28.3333 21.5547 28.264C22.3813 28.1973 22.8947 28.068 23.3013 27.8613C23.6569 27.6782 23.98 27.4529 24.2707 27.1853L23.7867 25.1427C23.5333 24.1853 22.7827 23.3947 21.768 23.0693L20.4547 22.6493C20.2556 22.5853 20.0547 22.5258 19.852 22.4707C19.7867 22.4533 19.6253 22.456 19.4 22.604C18.72 23.048 17.5253 23.648 16 23.648C14.4747 23.648 13.28 23.048 12.6 22.604C12.3733 22.456 12.2133 22.4533 12.1467 22.4707C11.9458 22.5258 11.7453 22.5853 11.5453 22.6493L10.232 23.0693C9.21734 23.3947 8.46668 24.1853 8.21334 25.1427L7.72934 27.1853C8.02001 27.4529 8.34223 27.6782 8.69868 27.8613Z" fill="white"/>
</svg>
